<?xml version="1.0" encoding="UTF-8"?>
<svg version="1.1" xmlns="http://www.w3.org/2000/svg" width="256" height="56">
<path d="M0 0 C0.84858582 -0.00807175 1.69717163 -0.01614349 2.57147217 -0.02445984 C4.37038122 -0.03830316 6.16931657 -0.04902421 7.96826172 -0.05688477 C10.70982228 -0.07406489 13.45016656 -0.11794359 16.19140625 -0.16210938 C17.94009531 -0.17223936 19.68879461 -0.1807545 21.4375 -0.1875 C22.66125336 -0.21376213 22.66125336 -0.21376213 23.909729 -0.24055481 C29.20554124 -0.22053511 32.38137091 0.57399021 36.484375 4.23828125 C38.43502348 7.68464566 38.69617965 10.36024121 38.42578125 14.265625 C38.34094482 15.69177124 38.34094482 15.69177124 38.25439453 17.14672852 C38.18591309 18.14631592 38.11743164 19.14590332 38.046875 20.17578125 C37.57857609 28.08531252 37.4717352 35.5305137 38.5234375 43.3984375 C38.46392716 47.72483933 36.88119075 50.74375044 33.9453125 53.88500977 C30.17962048 55.95576679 26.56887513 55.70603682 22.3359375 55.70703125 C21.44578949 55.71464478 20.55564148 55.7222583 19.63851929 55.73010254 C17.75741374 55.74089609 15.87624831 55.74375966 13.99511719 55.73925781 C11.12592841 55.73828685 8.2594268 55.7798863 5.390625 55.82421875 C3.55990139 55.82942712 1.72916852 55.83211392 -0.1015625 55.83203125 C-1.38152603 55.85662415 -1.38152603 55.85662415 -2.68734741 55.88171387 C-6.6288745 55.836292 -9.7327802 55.56245141 -13.05639648 53.32226562 C-16.50789655 48.99392761 -16.36685583 45.69498264 -16.27734375 40.30078125 C-16.28071243 39.34308838 -16.28408112 38.38539551 -16.28755188 37.39868164 C-16.28725347 35.3780377 -16.27204533 33.35734811 -16.24291992 31.33691406 C-16.20324905 28.24794051 -16.22221463 25.16326277 -16.24804688 22.07421875 C-16.24048733 20.1080563 -16.22953343 18.14190336 -16.21484375 16.17578125 C-16.22182785 15.25482666 -16.22881195 14.33387207 -16.23600769 13.38500977 C-16.13581779 8.82415098 -16.008029 6.86095585 -13.09692383 3.1796875 C-8.73625315 -0.09999218 -5.30207605 0.04753554 0 0 Z M-11.515625 7.23828125 C-11.185625 8.88828125 -10.855625 10.53828125 -10.515625 12.23828125 C-8.535625 12.89828125 -6.555625 13.55828125 -4.515625 14.23828125 C-3.65587699 11.94533637 -3.65587699 11.94533637 -3.515625 9.23828125 C-5.2868868 6.883059 -5.2868868 6.883059 -7.515625 5.23828125 C-8.97787516 5.14583122 -8.97787516 5.14583122 -11.515625 7.23828125 Z M0.484375 6.23828125 C0.154375 9.86828125 -0.175625 13.49828125 -0.515625 17.23828125 C1.464375 18.22828125 1.464375 18.22828125 3.484375 19.23828125 C5.81519507 22.80306489 7.02503853 27.25827271 8.484375 31.23828125 C10.134375 31.23828125 11.784375 31.23828125 13.484375 31.23828125 C12.38536258 28.7655033 11.26925214 26.98954544 9.484375 24.92578125 C5.21550796 19.18949117 5.20456708 13.0935752 5.484375 6.23828125 C3.834375 6.23828125 2.184375 6.23828125 0.484375 6.23828125 Z M10.484375 6.23828125 C9.12997832 8.9470746 9.41936049 11.24761393 9.484375 14.23828125 C10.474375 14.23828125 11.464375 14.23828125 12.484375 14.23828125 C13.91382445 11.88389392 14.57098761 10.75795692 14.109375 7.98828125 C13.903125 7.41078125 13.696875 6.83328125 13.484375 6.23828125 C12.494375 6.23828125 11.504375 6.23828125 10.484375 6.23828125 Z M19.484375 6.23828125 C19.31421875 6.8415625 19.1440625 7.44484375 18.96875 8.06640625 C17.54889252 12.74891497 16.45219094 16.09139274 12.484375 19.23828125 C13.144375 20.55828125 13.804375 21.87828125 14.484375 23.23828125 C17.94010132 21.75725568 20.39580217 20.40981778 22.484375 17.23828125 C22.52201813 13.51161116 22.0675005 9.91450722 21.484375 6.23828125 C20.824375 6.23828125 20.164375 6.23828125 19.484375 6.23828125 Z M29.484375 5.23828125 C27.31795835 6.90373464 27.31795835 6.90373464 25.484375 9.23828125 C25.62462699 11.94533637 25.62462699 11.94533637 26.484375 14.23828125 C28.464375 13.57828125 30.444375 12.91828125 32.484375 12.23828125 C32.814375 10.58828125 33.144375 8.93828125 33.484375 7.23828125 C32.164375 6.57828125 30.844375 5.91828125 29.484375 5.23828125 Z M-11.515625 16.23828125 C-11.391875 17.53765625 -11.268125 18.83703125 -11.140625 20.17578125 C-11.03621094 21.27212891 -11.03621094 21.27212891 -10.9296875 22.390625 C-10.79304687 23.00035156 -10.65640625 23.61007813 -10.515625 24.23828125 C-8.22856669 25.38181041 -6.92297738 25.34162564 -4.390625 25.30078125 C-3.111875 25.28015625 -1.833125 25.25953125 -0.515625 25.23828125 C-0.515625 24.24828125 -0.515625 23.25828125 -0.515625 22.23828125 C-2.17799271 20.80033503 -2.17799271 20.80033503 -4.328125 19.61328125 C-5.03582031 19.18789063 -5.74351563 18.7625 -6.47265625 18.32421875 C-8.61518987 17.11284643 -8.61518987 17.11284643 -11.515625 16.23828125 Z M28.046875 18.55078125 C27.24378906 18.98003906 26.44070312 19.40929687 25.61328125 19.8515625 C23.2157391 21.21393173 23.2157391 21.21393173 21.484375 24.23828125 C23.38322596 26.13713221 26.05685403 25.36195631 28.57421875 25.37109375 C30.57071867 25.35514986 30.57071867 25.35514986 32.484375 24.23828125 C32.94960563 22.34294783 32.94960563 22.34294783 33.109375 20.17578125 C33.233125 18.87640625 33.356875 17.57703125 33.484375 16.23828125 C31.51810498 16.23828125 29.72776474 17.63906666 28.046875 18.55078125 Z M19.484375 28.23828125 C19.154375 29.22828125 18.824375 30.21828125 18.484375 31.23828125 C20.4414618 31.90859844 22.40008613 32.57442808 24.359375 33.23828125 C25.44992188 33.60953125 26.54046875 33.98078125 27.6640625 34.36328125 C30.31058354 35.33705325 30.31058354 35.33705325 32.484375 35.23828125 C32.484375 33.25828125 32.484375 31.27828125 32.484375 29.23828125 C31.2675 29.25890625 30.050625 29.27953125 28.796875 29.30078125 C25.56460178 29.30652241 22.63502759 29.0259444 19.484375 28.23828125 Z M-2.515625 29.23828125 C-3.91002164 29.30493501 -5.30732375 29.32366324 -6.703125 29.30078125 C-8.5903125 29.26984375 -8.5903125 29.26984375 -10.515625 29.23828125 C-10.515625 31.21828125 -10.515625 33.19828125 -10.515625 35.23828125 C-8.55527325 34.78865929 -6.59738191 34.32829877 -4.640625 33.86328125 C-3.00480469 33.48042969 -3.00480469 33.48042969 -1.3359375 33.08984375 C1.58845955 32.4492191 1.58845955 32.4492191 3.484375 30.23828125 C3.154375 29.57828125 2.824375 28.91828125 2.484375 28.23828125 C0.27355649 28.13287199 0.27355649 28.13287199 -2.515625 29.23828125 Z M9.484375 35.23828125 C8.824375 39.85828125 8.164375 44.47828125 7.484375 49.23828125 C9.794375 49.23828125 12.104375 49.23828125 14.484375 49.23828125 C13.824375 44.61828125 13.164375 39.99828125 12.484375 35.23828125 C11.494375 35.23828125 10.504375 35.23828125 9.484375 35.23828125 Z M-10.515625 41.23828125 C-12.07581008 44.24606817 -12.07581008 44.24606817 -11.515625 47.23828125 C-10.57965185 49.25779187 -10.57965185 49.25779187 -8.515625 50.23828125 C-4.56999214 50.92447827 -3.02055943 50.58612497 0.296875 48.30078125 C3.14092852 44.31910632 3.36944276 41.03409036 3.484375 36.23828125 C-2.00127595 36.23828125 -6.02696679 38.12700913 -10.515625 41.23828125 Z M18.484375 36.23828125 C18.59930724 41.03409036 18.82782148 44.31910632 21.671875 48.30078125 C24.98930943 50.58612497 26.53874214 50.92447827 30.484375 50.23828125 C32.54840185 49.25779187 32.54840185 49.25779187 33.484375 47.23828125 C33.80146271 44.2174799 33.80146271 44.2174799 32.484375 41.23828125 C27.86951309 37.82328344 24.14795652 36.70061444 18.484375 36.23828125 Z " fill="#872421" transform="translate(15.515625,0.76171875)"/>
<path d="M0 0 C3.3 0 6.6 0 10 0 C10.8971875 2.2584375 10.8971875 2.2584375 11.8125 4.5625 C13.48101512 8.73675668 15.2076453 12.87758419 17 17 C17.02709444 14.91673869 17.04643873 12.83337559 17.0625 10.75 C17.07990234 9.00976562 17.07990234 9.00976562 17.09765625 7.234375 C17.01782092 4.59022872 16.78643778 2.50173909 16 0 C18.64 0 21.28 0 24 0 C23.67 9.57 23.34 19.14 23 29 C20.69 29 18.38 29 16 29 C13.36 23.06 10.72 17.12 8 11 C7.979375 13.413125 7.95875 15.82625 7.9375 18.3125 C7.92384399 19.44619019 7.92384399 19.44619019 7.90991211 20.6027832 C7.89712034 23.6839493 8.01868399 26.05605196 9 29 C6.03 29 3.06 29 0 29 C0.495 27.515 0.495 27.515 1 26 C1.09351594 24.26236803 1.13069921 22.52139529 1.1328125 20.78125 C1.13410156 19.76675781 1.13539063 18.75226562 1.13671875 17.70703125 C1.13285156 16.64871094 1.12898437 15.59039062 1.125 14.5 C1.12886719 13.44167969 1.13273438 12.38335937 1.13671875 11.29296875 C1.13542969 10.27847656 1.13414062 9.26398437 1.1328125 8.21875 C1.13168457 7.28998047 1.13055664 6.36121094 1.12939453 5.40429688 C1.09857734 2.85441818 1.09857734 2.85441818 0 0 Z " fill="#862422" transform="translate(206,8)"/>
<path d="M0 0 C2.64 0 5.28 0 8 0 C7.34 3.96 6.68 7.92 6 12 C9.63 12 13.26 12 17 12 C16.855625 10.576875 16.71125 9.15375 16.5625 7.6875 C16.48128906 6.88699219 16.40007812 6.08648437 16.31640625 5.26171875 C16.04734307 2.83912821 16.04734307 2.83912821 15 0 C17.64 0 20.28 0 23 0 C22.99476318 0.77190674 22.98952637 1.54381348 22.98413086 2.33911133 C22.96336758 5.83023263 22.95034189 9.32134095 22.9375 12.8125 C22.92912109 14.02744141 22.92074219 15.24238281 22.91210938 16.49414062 C22.90888672 17.65751953 22.90566406 18.82089844 22.90234375 20.01953125 C22.89710693 21.09307861 22.89187012 22.16662598 22.88647461 23.27270508 C22.87805412 26.09499365 22.87805412 26.09499365 24 29 C21.03 29 18.06 29 15 29 C15.66 24.71 16.32 20.42 17 16 C13.37 16 9.74 16 6 16 C6.144375 17.4025 6.28875 18.805 6.4375 20.25 C6.55931641 21.43335938 6.55931641 21.43335938 6.68359375 22.640625 C6.97634993 24.82364639 7.42064419 26.8773182 8 29 C5.36 29 2.72 29 0 29 C0 19.43 0 9.86 0 0 Z " fill="#872420" transform="translate(66,8)"/>
<path d="M0 0 C2.97 0 5.94 0 9 0 C8.34 3.96 7.68 7.92 7 12 C10.63 12 14.26 12 18 12 C17.34 8.04 16.68 4.08 16 0 C18.64 0 21.28 0 24 0 C24 9.57 24 19.14 24 29 C21.36 29 18.72 29 16 29 C16.66 24.71 17.32 20.42 18 16 C14.37 16 10.74 16 7 16 C7.144375 17.588125 7.28875 19.17625 7.4375 20.8125 C7.51871094 21.70582031 7.59992188 22.59914063 7.68359375 23.51953125 C7.93489767 26.12743559 7.93489767 26.12743559 9 29 C6.36 29 3.72 29 1 29 C1 26.17555552 1.01675716 23.3517212 1.03515625 20.52734375 C1.04446957 18.33073 1.05357585 16.13411537 1.0625 13.9375 C1.07087891 12.82310547 1.07925781 11.70871094 1.08789062 10.56054688 C1.09111328 9.49771484 1.09433594 8.43488281 1.09765625 7.33984375 C1.10289307 6.36394287 1.10812988 5.38804199 1.11352539 4.38256836 C1.16005028 1.98331962 1.16005028 1.98331962 0 0 Z " fill="#832725" transform="translate(152,8)"/>
<path d="M0 0 C2.64 0 5.28 0 8 0 C7.67 3.96 7.34 7.92 7 12 C10.3 12 13.6 12 17 12 C16.855625 10.576875 16.71125 9.15375 16.5625 7.6875 C16.48128906 6.88699219 16.40007812 6.08648437 16.31640625 5.26171875 C16.04734307 2.83912821 16.04734307 2.83912821 15 0 C17.64 0 20.28 0 23 0 C23 9.57 23 19.14 23 29 C20.36 29 17.72 29 15 29 C15.66 24.71 16.32 20.42 17 16 C12.05 16.495 12.05 16.495 7 17 C7.33 20.96 7.66 24.92 8 29 C5.36 29 2.72 29 0 29 C0.16226074 28.43990234 0.32452148 27.87980469 0.49169922 27.30273438 C1.03330277 24.84912982 1.12941401 22.66724759 1.1328125 20.15625 C1.13410156 19.23972656 1.13539063 18.32320312 1.13671875 17.37890625 C1.13285156 16.42886719 1.12898437 15.47882812 1.125 14.5 C1.12886719 13.54996094 1.13273438 12.59992187 1.13671875 11.62109375 C1.13478516 10.24630859 1.13478516 10.24630859 1.1328125 8.84375 C1.13168457 8.01037109 1.13055664 7.17699219 1.12939453 6.31835938 C1.00464558 4.08323482 0.62140725 2.14499663 0 0 Z " fill="#862622" transform="translate(233,8)"/>
<path d="M0 0 C2.31 0 4.62 0 7 0 C7.23187012 0.70084717 7.46374023 1.40169434 7.70263672 2.1237793 C8.75850109 5.3122153 9.81672644 8.49986286 10.875 11.6875 C11.23980469 12.79029297 11.60460937 13.89308594 11.98046875 15.02929688 C12.33496094 16.09599609 12.68945312 17.16269531 13.0546875 18.26171875 C13.37937012 19.24100342 13.70405273 20.22028809 14.03857422 21.22924805 C14.94987046 23.85553069 15.9451193 26.42847176 17 29 C14.36 29 11.72 29 9 29 C8.67 26.69 8.34 24.38 8 22 C3.46859347 21.06619039 3.46859347 21.06619039 -1 22 C-1.33 24.31 -1.66 26.62 -2 29 C-4.64 29 -7.28 29 -10 29 C-9.71012207 28.29335205 -9.42024414 27.5867041 -9.12158203 26.85864258 C-8.00641417 24.01634819 -7.01548549 21.15960946 -6.0546875 18.26171875 C-5.70019531 17.19501953 -5.34570312 16.12832031 -4.98046875 15.02929688 C-4.43326172 13.37510742 -4.43326172 13.37510742 -3.875 11.6875 C-3.50246094 10.56537109 -3.12992187 9.44324219 -2.74609375 8.28710938 C-1.82937057 5.52518697 -0.91405419 2.76280661 0 0 Z M3 7 C2.01 10.3 1.02 13.6 0 17 C2.31 17 4.62 17 7 17 C6.01 13.7 5.02 10.4 4 7 C3.67 7 3.34 7 3 7 Z " fill="#862522" transform="translate(101,8)"/>
<path d="M0 0 C2.31 0 4.62 0 7 0 C7.23074219 0.78761719 7.46148437 1.57523438 7.69921875 2.38671875 C9.82736164 9.49454775 12.22422978 16.41925684 14.94921875 23.3203125 C15.68404347 25.19425213 16.36347686 27.09043058 17 29 C14.36 29 11.72 29 9 29 C8.67 26.69 8.34 24.38 8 22 C3.38990512 20.82991255 3.38990512 20.82991255 -0.9375 22.125 C-2.30361625 24.53579338 -2.22111261 26.27294446 -2 29 C-4.64 29 -7.28 29 -10 29 C-8.01261325 22.86806299 -5.73727935 16.8481375 -3.47851562 10.8125 C-3.17494141 9.99523438 -2.87136719 9.17796875 -2.55859375 8.3359375 C-2.14565063 7.23064697 -2.14565063 7.23064697 -1.72436523 6.10302734 C-1.02923551 4.08487857 -0.48381876 2.07786809 0 0 Z M3 7 C2.01 10.3 1.02 13.6 0 17 C2.31 17 4.62 17 7 17 C6.01 13.7 5.02 10.4 4 7 C3.67 7 3.34 7 3 7 Z " fill="#88231E" transform="translate(188,8)"/>
<path d="M0 0 C7.26 0 14.52 0 22 0 C22.33 2.64 22.66 5.28 23 8 C22.278125 7.525625 21.55625 7.05125 20.8125 6.5625 C18.08375611 5.04653117 16.03693921 4.52572225 13 4 C13.1391669 7.41697238 13.28749585 10.83348757 13.4375 14.25 C13.47681641 15.21808594 13.51613281 16.18617187 13.55664062 17.18359375 C13.61948242 18.58544922 13.61948242 18.58544922 13.68359375 20.015625 C13.72025146 20.87446289 13.75690918 21.73330078 13.79467773 22.61816406 C13.98703514 24.84960143 14.38846244 26.84982524 15 29 C12.36 29 9.72 29 7 29 C7.33 20.75 7.66 12.5 8 4 C3.45942625 5.91251867 3.45942625 5.91251867 -1 8 C-1.125 2.25 -1.125 2.25 0 0 Z " fill="#832523" transform="translate(128,8)"/>
<path d="M0 0 C1.5 1.375 1.5 1.375 3 3 C3 3.66 3 4.32 3 5 C3.66 5 4.32 5 5 5 C5.66 3.35 6.32 1.7 7 0 C9.49505962 2.49505962 9.35948376 3.67328888 9.625 7.125 C9.69976562 8.03507812 9.77453125 8.94515625 9.8515625 9.8828125 C9.90054688 10.58148438 9.94953125 11.28015625 10 12 C9.01 12 8.02 12 7 12 C7 11.34 7 10.68 7 10 C6.34 10 5.68 10 5 10 C5 10.66 5 11.32 5 12 C4.34 12 3.68 12 3 12 C2.67 11.34 2.34 10.68 2 10 C1.67 10.66 1.34 11.32 1 12 C0.01 12 -0.98 12 -2 12 C-1.85904936 10.3745692 -1.71207913 8.74965949 -1.5625 7.125 C-1.48128906 6.22007813 -1.40007812 5.31515625 -1.31640625 4.3828125 C-1 2 -1 2 0 0 Z " fill="#842622" transform="translate(115,44)"/>
<path d="M0 0 C2.15502531 3.23253796 2.46856135 4.25150923 2 8 C0.9375 9.8125 0.9375 9.8125 -1 11 C-4.5625 11.3125 -4.5625 11.3125 -8 11 C-10 9 -10 9 -10.375 5.5625 C-10 2 -10 2 -8.375 0 C-5.16403572 -1.35198496 -3.30053834 -1.00451167 0 0 Z M-5 2 C-5.66 2.66 -6.32 3.32 -7 4 C-6.6814823 6.10820797 -6.6814823 6.10820797 -6 8 C-4.68 7.67 -3.36 7.34 -2 7 C-2 5.68 -2 4.36 -2 3 C-2.99 2.67 -3.98 2.34 -5 2 Z " fill="#872423" transform="translate(192,45)"/>
<path d="M0 0 C1.65 1.32 3.3 2.64 5 4 C5.33 2.68 5.66 1.36 6 0 C6.99 0 7.98 0 9 0 C9 3.96 9 7.92 9 12 C5 10 5 10 4 9 C3.67 9.99 3.34 10.98 3 12 C2.01 12 1.02 12 0 12 C0 8.04 0 4.08 0 0 Z " fill="#872325" transform="translate(200,44)"/>
<path d="M0 0 C1.65 1.32 3.3 2.64 5 4 C5.33 2.68 5.66 1.36 6 0 C6.99 0 7.98 0 9 0 C9.33 3.96 9.66 7.92 10 12 C9.01 12 8.02 12 7 12 C5.3125 10 5.3125 10 4 8 C3.67 9.32 3.34 10.64 3 12 C2.01 12 1.02 12 0 12 C0 8.04 0 4.08 0 0 Z " fill="#862525" transform="translate(145,44)"/>
<path d="M0 0 C3.125 0.375 3.125 0.375 6 1 C5.814375 1.639375 5.62875 2.27875 5.4375 2.9375 C5.293125 3.618125 5.14875 4.29875 5 5 C5.33 5.33 5.66 5.66 6 6 C6.125 8.5 6.125 8.5 6 11 C5 12 5 12 1.9375 12.0625 C0.968125 12.041875 -0.00125 12.02125 -1 12 C-1 10.68 -1 9.36 -1 8 C-1.20625 6.96875 -1.4125 5.9375 -1.625 4.875 C-1.74875 3.92625 -1.8725 2.9775 -2 2 C-1.34 1.34 -0.68 0.68 0 0 Z " fill="#882522" transform="translate(162,44)"/>
<path d="M0 0 C0.66 0 1.32 0 2 0 C2.83819158 1.62249941 3.6704116 3.24808497 4.5 4.875 C4.9640625 5.77992187 5.428125 6.68484375 5.90625 7.6171875 C7 10 7 10 7 12 C5.68 12 4.36 12 3 12 C3 11.34 3 10.68 3 10 C1.8553125 10.495 1.8553125 10.495 0.6875 11 C-2 12 -2 12 -5 12 C-3.68938409 7.76570244 -2.05643741 3.92592596 0 0 Z " fill="#8C2624" transform="translate(134,44)"/>
<path d="M0 0 C0.66 0 1.32 0 2 0 C2 5.94 2 11.88 2 18 C1.34 18.33 0.68 18.66 0 19 C-0.33 16.69 -0.66 14.38 -1 12 C-4.3 11.67 -7.6 11.34 -11 11 C-11 10.34 -11 9.68 -11 9 C-7.7 8.67 -4.4 8.34 -1 8 C-0.67 5.36 -0.34 2.72 0 0 Z " fill="#901E1D" transform="translate(171,12)"/>
<path d="M0 0 C0.66 0 1.32 0 2 0 C2.33 2.31 2.66 4.62 3 7 C6.63 7 10.26 7 14 7 C14 7.66 14 8.32 14 9 C12.95199219 9.07347656 12.95199219 9.07347656 11.8828125 9.1484375 C10.97273437 9.22320312 10.06265625 9.29796875 9.125 9.375 C8.22007812 9.44460937 7.31515625 9.51421875 6.3828125 9.5859375 C3.82058097 9.79568132 3.82058097 9.79568132 2 12 C1.35232207 14.57061311 1.35232207 14.57061311 1 17 C0.67 17 0.34 17 0 17 C0 11.39 0 5.78 0 0 Z " fill="#8D201E" transform="translate(236,14)"/>
<path d="M0 0 C0.66 0 1.32 0 2 0 C2.06058594 1.14597656 2.12117187 2.29195312 2.18359375 3.47265625 C2.26806989 5.00261297 2.35271427 6.53256041 2.4375 8.0625 C2.47681641 8.81466797 2.51613281 9.56683594 2.55664062 10.34179688 C2.81580719 14.94698741 3.2799421 19.44366724 4 24 C2.68 23.67 1.36 23.34 0 23 C0 15.41 0 7.82 0 0 Z " fill="#90211F" transform="translate(137,12)"/>
<path d="M0 0 C2.64 0 5.28 0 8 0 C7.34 3.96 6.68 7.92 6 12 C5.67 12 5.34 12 5 12 C5 9.36 5 6.72 5 4 C4.34 4 3.68 4 3 4 C2.67 10.6 2.34 17.2 2 24 C1.67 24 1.34 24 1 24 C0.67 16.08 0.34 8.16 0 0 Z " fill="#792E28" transform="translate(66,8)"/>
<path d="M0 0 C3.03903314 3.69969252 4 6.23004695 4 11 C1.36 11 -1.28 11 -4 11 C-2.7874262 7.27566618 -1.49140021 3.62197194 0 0 Z " fill="#802623" transform="translate(182,26)"/>
<path d="M0 0 C1.32 0 2.64 0 4 0 C4 3.96 4 7.92 4 12 C2.68 12 1.36 12 0 12 C0 8.04 0 4.08 0 0 Z " fill="#872523" transform="translate(173,44)"/>
<path d="M0 0 C0.33 0 0.66 0 1 0 C1.21192221 5.19209404 0.5912689 9.126739 -1 14 C-3.64 14 -6.28 14 -9 14 C-8.01 11.69 -7.02 9.38 -6 7 C-5.67 7.99 -5.34 8.98 -5 10 C-3.68 10 -2.36 10 -1 10 C-1 9.34 -1 8.68 -1 8 C-1.99 8 -2.98 8 -4 8 C-4 7.34 -4 6.68 -4 6 C-3.01 5.67 -2.02 5.34 -1 5 C-0.67 3.35 -0.34 1.7 0 0 Z " fill="#772821" transform="translate(24,36)"/>
<path d="M0 0 C2.97 0 5.94 0 9 0 C9 0.66 9 1.32 9 2 C8.01 2 7.02 2 6 2 C6 3.98 6 5.96 6 8 C5.34 8 4.68 8 4 8 C4 10.97 4 13.94 4 17 C3.67 17 3.34 17 3 17 C3 12.05 3 7.1 3 2 C2.01 1.67 1.02 1.34 0 1 C0 0.67 0 0.34 0 0 Z " fill="#90211B" transform="translate(152,8)"/>
<path d="M0 0 C3.86933162 0.57323431 6.15222057 2.38953552 9 5 C9 5.66 9 6.32 9 7 C7.741875 6.87625 6.48375 6.7525 5.1875 6.625 C4.12595703 6.52058594 4.12595703 6.52058594 3.04296875 6.4140625 C1 6 1 6 -2 4 C-2 3.34 -2 2.68 -2 2 C-1.34 2 -0.68 2 0 2 C0 1.34 0 0.68 0 0 Z " fill="#842322" transform="translate(101,0)"/>
<path d="M0 0 C2.66666667 1.33333333 5.33333333 2.66666667 8 4 C8 4.99 8 5.98 8 7 C1.375 6.25 1.375 6.25 -2 4 C-1.34 2.68 -0.68 1.36 0 0 Z " fill="#862421" transform="translate(188,0)"/>
<path d="M0 0 C2.50037734 2.17424117 3.43628586 3.73045798 4 7 C2.68 7 1.36 7 0 7 C0 6.34 0 5.68 0 5 C-1.1446875 5.495 -1.1446875 5.495 -2.3125 6 C-5 7 -5 7 -8 7 C-7.34 5.68 -6.68 4.36 -6 3 C-4.35 3.33 -2.7 3.66 -1 4 C-0.67 2.68 -0.34 1.36 0 0 Z " fill="#822820" transform="translate(137,49)"/>
<path d="M0 0 C0.99 0 1.98 0 3 0 C3 7.59 3 15.18 3 23 C2.67 23 2.34 23 2 23 C2 18.38 2 13.76 2 9 C1.34 9 0.68 9 0 9 C0.185625 8.071875 0.37125 7.14375 0.5625 6.1875 C1.24123881 2.98656229 1.24123881 2.98656229 0 0 Z " fill="#7F2824" transform="translate(252,11)"/>
<path d="M0 0 C1.77706209 2.66559313 2.87548273 5.0280615 4 8 C1.36 8 -1.28 8 -4 8 C-4 6.35 -4 4.7 -4 3 C-3.01 3.495 -3.01 3.495 -2 4 C-2 4.66 -2 5.32 -2 6 C-1.01 6 -0.02 6 1 6 C0.67 4.02 0.34 2.04 0 0 Z " fill="#80272B" transform="translate(201,29)"/>
<path d="M0 0 C1.485 0.99 1.485 0.99 3 2 C3.29296875 4.1640625 3.29296875 4.1640625 3.1875 6.625 C3.16042969 7.44226563 3.13335937 8.25953125 3.10546875 9.1015625 C3.07066406 9.72804688 3.03585938 10.35453125 3 11 C2.01 10.67 1.02 10.34 0 10 C0 6.7 0 3.4 0 0 Z " fill="#751616" transform="translate(208,15)"/>
<path d="M0 0 C0.33 0.66 0.66 1.32 1 2 C1.99 2.33 2.98 2.66 4 3 C4 3.66 4 4.32 4 5 C1.03 5 -1.94 5 -5 5 C-4 2 -4 2 -1.9375 0.8125 C-1.298125 0.544375 -0.65875 0.27625 0 0 Z " fill="#832123" transform="translate(211,32)"/>
<path d="M0 0 C0.98120464 3.05263664 0.98120464 4.94736336 0 8 C-0.99 7.67 -1.98 7.34 -3 7 C-4.33106622 6.65772583 -5.66400079 6.32248257 -7 6 C-6.67 5.01 -6.34 4.02 -6 3 C-4.68 3 -3.36 3 -2 3 C-1.34 2.01 -0.68 1.02 0 0 Z " fill="#95221F" transform="translate(110,21)"/>
<path d="M0 0 C0.33 0 0.66 0 1 0 C1.66 2.64 2.32 5.28 3 8 C0.36 8 -2.28 8 -5 8 C-5 7.01 -5 6.02 -5 5 C-4.67 5.66 -4.34 6.32 -4 7 C-1.64214682 6.10664203 -1.64214682 6.10664203 -0.875 2.9375 C-0.441875 1.4834375 -0.441875 1.4834375 0 0 Z " fill="#7D242C" transform="translate(158,29)"/>
<path d="M0 0 C2.64 0 5.28 0 8 0 C8 0.66 8 1.32 8 2 C7.34 2 6.68 2 6 2 C6 2.66 6 3.32 6 4 C4.35 4 2.7 4 1 4 C0.67 2.68 0.34 1.36 0 0 Z " fill="#872520" transform="translate(233,8)"/>
<path d="M0 0 C3 1 3 1 4.1875 3.0625 C4.455625 3.701875 4.72375 4.34125 5 5 C3.68 5 2.36 5 1 5 C1 5.66 1 6.32 1 7 C-1.51083114 5.74458443 -1.87125446 4.49936512 -3 2 C-2.01 2 -1.02 2 0 2 C0 1.34 0 0.68 0 0 Z " fill="#802625" transform="translate(16,19)"/>
<path d="M0 0 C0 1.65 0 3.3 0 5 C-0.99 5 -1.98 5 -3 5 C-3 5.66 -3 6.32 -3 7 C-2.01 7 -1.02 7 0 7 C0 7.66 0 8.32 0 9 C-1.32 9 -2.64 9 -4 9 C-4.368 3.48 -4.368 3.48 -2.5625 1.125 C-1 0 -1 0 0 0 Z " fill="#8D211B" transform="translate(23,37)"/>
<path d="M0 0 C2.64 0 5.28 0 8 0 C7.67 0.99 7.34 1.98 7 3 C5.02 3 3.04 3 1 3 C0.67 2.01 0.34 1.02 0 0 Z " fill="#8C2420" transform="translate(66,8)"/>
<path d="M0 0 C0.66 0.66 1.32 1.32 2 2 C1.7578125 4.3828125 1.7578125 4.3828125 1.125 7.125 C0.92132813 8.03507812 0.71765625 8.94515625 0.5078125 9.8828125 C0.34023437 10.58148438 0.17265625 11.28015625 0 12 C-1.36398513 9.75700222 -2.05762059 8.50929167 -1.7578125 5.859375 C-1.171875 3.90625 -0.5859375 1.953125 0 0 Z " fill="#7E2326" transform="translate(111,21)"/>
<path d="M0 0 C0.33 0 0.66 0 1 0 C1 2.64 1 5.28 1 8 C-0.98 8.99 -0.98 8.99 -3 10 C-2.01 6.7 -1.02 3.4 0 0 Z " fill="#7B2723" transform="translate(186,15)"/>
<path d="M0 0 C0.66 0.33 1.32 0.66 2 1 C2 1.99 2 2.98 2 4 C1.360625 4.12375 0.72125 4.2475 0.0625 4.375 C-0.9584375 4.684375 -0.9584375 4.684375 -2 5 C-2.33 5.66 -2.66 6.32 -3 7 C-3.1875 4.625 -3.1875 4.625 -3 2 C-2.01 1.34 -1.02 0.68 0 0 Z " fill="#8D1D1A" transform="translate(100,19)"/>
<path d="M0 0 C0.99 0.33 1.98 0.66 3 1 C2.34 2.65 1.68 4.3 1 6 C-0.32 5.67 -1.64 5.34 -3 5 C-2.01 3.35 -1.02 1.7 0 0 Z " fill="#8E1E1D" transform="translate(135,47)"/>
<path d="M0 0 C0.33 0.66 0.66 1.32 1 2 C2.98 2 4.96 2 7 2 C7 2.66 7 3.32 7 4 C4.36 4 1.72 4 -1 4 C-0.67 2.68 -0.34 1.36 0 0 Z " fill="#862A2B" transform="translate(92,33)"/>
<path d="M0 0 C2.97 0.33 5.94 0.66 9 1 C7 3 7 3 3.875 3.125 C2.451875 3.063125 2.451875 3.063125 1 3 C0.67 2.01 0.34 1.02 0 0 Z " fill="#961A1B" transform="translate(206,8)"/>
<path d="M0 0 C1.32 0.33 2.64 0.66 4 1 C4 1.99 4 2.98 4 4 C1.69 3.67 -0.62 3.34 -3 3 C-2.01 2.67 -1.02 2.34 0 2 C0 1.34 0 0.68 0 0 Z " fill="#7D2729" transform="translate(192,3)"/>
</svg>
